<?xml version="1.0" encoding="UTF-8"?>
<svg id="a" xmlns="http://www.w3.org/2000/svg" width="120" height="50" viewBox="0 0 120 50">
  <path id="icon" d="M46.87,42.27c-1.01-.42-2.03-.82-3.07-1.17l-.09-.03c-2.12-.71-4.29-1.29-6.49-1.73-.08-.02-.11-.05-.11-.13v-4.2c0-.7-.13-1.39-.38-2.04-.25-.66-.63-1.25-1.12-1.76-.05-.07-.12-.13-.19-.19-.41-.41-.89-.74-1.42-1-.48-.22-.98-.4-1.49-.55-.07-.01-.11-.07-.1-.14V13.79s.01-.06-.02-.1l-4.79,2.36c-.06-.3-.13-.59-.23-.87-.46-1.45-1.47-2.66-2.82-3.37-1.05-.55-2.1-1.07-3.16-1.61l-3.5-1.8-.61-.31V25.86c.01,.07-.03,.14-.1,.15-.28,.1-.55,.22-.82,.33-.89,.31-1.68,.82-2.32,1.51-.93,1-1.45,2.32-1.45,3.69v7.64c0,.1-.02,.13-.12,.15-.91,.18-1.81,.39-2.71,.62-2.66,.67-5.27,1.58-7.78,2.69v.02h0c2.39-.65,4.82-1.18,7.26-1.6,1.63-.28,3.27-.51,4.91-.7,1.38-.16,2.76-.28,4.15-.38,1.69-.12,3.37-.18,5.07-.21,1.03-.02,2.06-.02,3.09,0,.76,.02,1.52,.04,2.28,.06,1.04,.04,2.07,.1,3.1,.18s2.03,.17,3.05,.27c1.16,.12,2.32,.27,3.47,.44,1.22,.18,2.43,.38,3.64,.61l1.29,.24s.03,.01,.04,.02c.7,.15,1.4,.31,2.09,.47,.73,.17,1.46,.37,2.19,.56l.02-.02c-.27-.1-.53-.22-.8-.34h0Zm-29.7-3.69c-.81,.09-1.62,.21-2.43,.34-.33,.06-.66,.11-.98,.17-.1,.02-.12,0-.12-.1v-5.91c0-.58-.03-1.16,0-1.74,.06-1.49,.88-2.86,2.17-3.61,.45-.25,.93-.46,1.42-.63,.05-.02,.08-.02,.08,.05,0,.03,0,.06,0,.08v11.2c0,.1-.03,.13-.13,.14h0Zm4.69-.39c-.9,.03-1.8,.1-2.7,.17-.24,.02-.5,.05-.74,.07-.08,0-.1-.01-.09-.09v-11.55c-.01-.08,.04-.17,.13-.19,1.14-.45,2.28-.89,3.41-1.34,.13-.05,.13-.05,.13,.09v12.69c0,.11-.04,.14-.13,.14Zm.15-15.21c-.01,.34-.01,.69-.01,1.03,0,.06,0,.09-.07,.12l-3.57,1.4h-.03V9.76c.19,.09,.36,.18,.53,.27,1.61,.81,3.21,1.63,4.8,2.44,.58,.26,1.1,.62,1.56,1.06,.73,.74,1.21,1.69,1.38,2.72,.05,.26,.04,.26-.19,.38-.54,.24-1.07,.52-1.57,.83-.39,.26-.74,.57-1.04,.92-.36,.39-.66,.82-.9,1.29-.54,1.02-.85,2.16-.89,3.32,0,0,0,0,0,0Zm4.69-1.54v16.54c0,.16,0,.15-.16,.15-.29,0-.59-.02-.88-.02-.84,0-1.69,0-2.53,.02-.08,0-.11-.02-.1-.1v-14.62c-.02-1.31,.33-2.59,1.03-3.7,.14-.21,.29-.42,.46-.62,.33-.38,.72-.7,1.15-.96,.31-.18,.64-.32,.96-.48,.1-.05,.07,.02,.07,.07v3.71h0Zm4.55,16.98c-.89-.1-1.79-.16-2.68-.21-.24-.01-.48-.03-.74-.03-.09,0-.11-.03-.11-.12v-9.09l.98,.32c.86,.28,1.71,.56,2.57,.84,.08,.01,.14,.09,.13,.17h0v8c.01,.12-.03,.14-.14,.13Zm.14-11.39v2.06l-1.1-.36c-.8-.27-1.61-.53-2.43-.79-.09-.01-.14-.09-.13-.18h0v-10.52c0-.08,.04-.15,.11-.18,.88-.43,1.75-.86,2.63-1.29l.82-.4c.08-.04,.11-.01,.11,.07v10.54c.01,.35,0,.7,0,1.05h0Zm4.58,12.05c-1.01-.18-2.03-.34-3.05-.47-.13-.02-.27-.04-.4-.05-.07,0-.1-.04-.09-.1v-7.8c0-.1,.04-.13,.13-.11,.71,.19,1.38,.53,1.94,1l.21,.19,.17,.17c.43,.47,.75,1.01,.96,1.6,.16,.46,.24,.93,.24,1.42v4.04c0,.12-.04,.12-.13,.1h0Z" fill="#262c2e"/>
  <g>
    <g>
      <path d="M48.94,25.14h-1.12v-8.53h1.12v8.53Z" fill="#262c2e"/>
      <path d="M56.38,25.14v-8.53h2.41c.74,0,1.4,.16,1.97,.49s1.01,.79,1.32,1.4,.47,1.3,.47,2.09v.54c0,.8-.16,1.51-.47,2.12s-.75,1.07-1.33,1.39-1.25,.49-2.01,.5h-2.36Zm1.12-7.61v6.69h1.18c.87,0,1.54-.27,2.02-.81,.48-.54,.72-1.31,.72-2.3v-.5c0-.97-.23-1.72-.68-2.26-.46-.54-1.1-.81-1.94-.82h-1.31Z" fill="#262c2e"/>
      <path d="M72.67,21.19h-3.7v3.02h4.29v.92h-5.42v-8.53h5.36v.92h-4.24v2.75h3.7v.92Z" fill="#262c2e"/>
      <path d="M83.42,22.91h-3.57l-.8,2.23h-1.16l3.26-8.53h.98l3.26,8.53h-1.15l-.81-2.23Zm-3.23-.92h2.9l-1.45-3.99-1.45,3.99Z" fill="#262c2e"/>
      <path d="M91.27,24.22h4.04v.92h-5.17v-8.53h1.13v7.61Z" fill="#262c2e"/>
      <path d="M103.81,20.89l2.23-4.28h1.28l-2.94,5.35v3.18h-1.12v-3.18l-2.94-5.35h1.29l2.21,4.28Z" fill="#262c2e"/>
      <path d="M114.84,21.33c-.96-.28-1.67-.62-2.11-1.02s-.66-.9-.66-1.5c0-.67,.27-1.23,.81-1.67s1.24-.66,2.09-.66c.59,0,1.11,.11,1.57,.34s.81,.54,1.07,.94,.38,.83,.38,1.31h-1.13c0-.52-.16-.92-.49-1.22s-.79-.44-1.39-.44c-.55,0-.99,.12-1.3,.37-.31,.24-.47,.58-.47,1.02,0,.35,.15,.64,.44,.88,.29,.24,.8,.46,1.51,.66,.71,.2,1.26,.42,1.66,.66s.7,.52,.89,.84,.29,.7,.29,1.13c0,.69-.27,1.25-.81,1.66s-1.26,.62-2.16,.62c-.59,0-1.13-.11-1.64-.34s-.9-.53-1.17-.92-.41-.83-.41-1.33h1.13c0,.52,.19,.92,.57,1.22s.89,.45,1.53,.45c.59,0,1.05-.12,1.37-.36s.47-.57,.47-.99-.15-.74-.44-.97-.82-.45-1.59-.68Z" fill="#262c2e"/>
    </g>
    <g>
      <path d="M49.23,32.43c-.45-.13-.78-.29-.98-.48-.21-.19-.31-.42-.31-.7,0-.31,.12-.57,.38-.78,.25-.21,.58-.31,.98-.31,.27,0,.52,.05,.73,.16,.21,.11,.38,.25,.5,.44s.18,.39,.18,.61h-.53c0-.24-.08-.43-.23-.57-.15-.14-.37-.21-.65-.21-.26,0-.46,.06-.61,.17s-.22,.27-.22,.48c0,.16,.07,.3,.21,.41s.37,.21,.7,.31,.59,.2,.78,.31c.19,.11,.33,.24,.42,.39,.09,.15,.14,.33,.14,.53,0,.32-.13,.58-.38,.78s-.59,.29-1.01,.29c-.27,0-.53-.05-.77-.16-.24-.1-.42-.25-.55-.43s-.19-.39-.19-.62h.53c0,.24,.09,.43,.27,.57s.42,.21,.71,.21c.28,0,.49-.06,.64-.17,.15-.11,.22-.27,.22-.46s-.07-.35-.21-.45c-.14-.11-.38-.21-.74-.32Z" fill="#262c2e"/>
      <path d="M54.02,30.22l1.3,3.25,1.3-3.25h.68v3.98h-.52v-1.55l.05-1.67-1.31,3.22h-.4l-1.3-3.22,.05,1.67v1.55h-.53v-3.98h.68Z" fill="#262c2e"/>
      <path d="M62.44,33.16h-1.67l-.37,1.04h-.54l1.52-3.98h.46l1.52,3.98h-.54l-.38-1.04Zm-1.51-.43h1.35l-.68-1.86-.68,1.86Z" fill="#262c2e"/>
      <path d="M67.31,32.6h-.93v1.61h-.53v-3.98h1.32c.45,0,.79,.1,1.04,.31,.24,.2,.36,.5,.36,.89,0,.25-.07,.46-.2,.65-.13,.18-.32,.32-.56,.41l.94,1.69v.03h-.56l-.86-1.61Zm-.93-.43h.81c.26,0,.47-.07,.62-.2,.15-.13,.23-.32,.23-.54,0-.25-.07-.44-.22-.57-.15-.13-.36-.2-.64-.2h-.8v1.51Z" fill="#262c2e"/>
      <path d="M73.79,30.65h-1.28v3.55h-.52v-3.55h-1.28v-.43h3.08v.43Z" fill="#262c2e"/>
    </g>
    <g>
      <path d="M80.99,32.43c-.45-.13-.78-.29-.98-.48-.21-.19-.31-.42-.31-.7,0-.31,.12-.57,.38-.78,.25-.21,.58-.31,.98-.31,.27,0,.52,.05,.73,.16,.21,.11,.38,.25,.5,.44,.12,.19,.18,.39,.18,.61h-.53c0-.24-.08-.43-.23-.57-.15-.14-.37-.21-.65-.21-.26,0-.46,.06-.61,.17-.15,.11-.22,.27-.22,.48,0,.16,.07,.3,.21,.41s.37,.21,.7,.31,.59,.2,.78,.31c.19,.11,.33,.24,.42,.39,.09,.15,.13,.33,.13,.53,0,.32-.12,.58-.38,.78s-.59,.29-1.01,.29c-.27,0-.53-.05-.77-.16-.24-.1-.42-.25-.55-.43-.13-.18-.19-.39-.19-.62h.53c0,.24,.09,.43,.27,.57s.42,.21,.71,.21c.28,0,.49-.06,.64-.17s.22-.27,.22-.46-.07-.35-.21-.45c-.14-.11-.38-.21-.74-.32Z" fill="#262c2e"/>
      <path d="M87.35,32.37h-1.73v1.41h2v.43h-2.53v-3.98h2.5v.43h-1.98v1.28h1.73v.43Z" fill="#262c2e"/>
      <path d="M91.7,32.6h-.93v1.61h-.53v-3.98h1.32c.45,0,.79,.1,1.04,.31,.24,.2,.36,.5,.36,.89,0,.25-.07,.46-.2,.65-.13,.18-.32,.32-.56,.41l.94,1.69v.03h-.56l-.86-1.61Zm-.93-.43h.81c.26,0,.47-.07,.62-.2,.15-.13,.23-.32,.23-.54,0-.25-.07-.44-.22-.57-.15-.13-.36-.2-.64-.2h-.8v1.51Z" fill="#262c2e"/>
      <path d="M96.92,33.51l1.14-3.28h.57l-1.48,3.98h-.46l-1.47-3.98h.57l1.13,3.28Z" fill="#262c2e"/>
      <path d="M101.68,34.21h-.53v-3.98h.53v3.98Z" fill="#262c2e"/>
      <path d="M107.53,32.94c-.05,.42-.21,.75-.47,.98-.26,.23-.61,.34-1.04,.34-.47,0-.85-.17-1.13-.51-.28-.34-.43-.79-.43-1.35v-.38c0-.37,.07-.7,.2-.98,.13-.28,.32-.5,.56-.65,.24-.15,.52-.23,.84-.23,.42,0,.76,.12,1.02,.35,.25,.24,.4,.56,.45,.98h-.53c-.05-.32-.14-.55-.3-.69s-.37-.21-.64-.21c-.33,0-.6,.12-.79,.37s-.29,.6-.29,1.06v.39c0,.43,.09,.78,.27,1.03s.43,.38,.76,.38c.29,0,.52-.07,.67-.2,.16-.13,.26-.36,.31-.69h.53Z" fill="#262c2e"/>
      <path d="M112.46,32.37h-1.73v1.41h2v.43h-2.53v-3.98h2.5v.43h-1.98v1.28h1.73v.43Z" fill="#262c2e"/>
      <path d="M116.52,32.43c-.45-.13-.78-.29-.98-.48-.21-.19-.31-.42-.31-.7,0-.31,.12-.57,.38-.78,.25-.21,.58-.31,.98-.31,.27,0,.52,.05,.73,.16,.21,.11,.38,.25,.5,.44,.12,.19,.18,.39,.18,.61h-.53c0-.24-.08-.43-.23-.57-.15-.14-.37-.21-.65-.21-.26,0-.46,.06-.61,.17-.15,.11-.22,.27-.22,.48,0,.16,.07,.3,.21,.41s.37,.21,.7,.31,.59,.2,.78,.31c.19,.11,.33,.24,.42,.39,.09,.15,.13,.33,.13,.53,0,.32-.12,.58-.38,.78s-.59,.29-1.01,.29c-.27,0-.53-.05-.77-.16-.24-.1-.42-.25-.55-.43-.13-.18-.19-.39-.19-.62h.53c0,.24,.09,.43,.27,.57s.42,.21,.71,.21c.28,0,.49-.06,.64-.17s.22-.27,.22-.46-.07-.35-.21-.45c-.14-.11-.38-.21-.74-.32Z" fill="#262c2e"/>
    </g>
  </g>
</svg>